<svg xmlns="http://www.w3.org/2000/svg" version="1.1" xmlns:xlink="http://www.w3.org/1999/xlink" width="512" height="512" x="0" y="0" viewBox="0 0 47 68" style="enable-background:new 0 0 512 512" xml:space="preserve"><g><path d="M26.625 1.994c-.107.021-.212.04-.314.054a5 5 0 0 0-4.304 5.224c.509 9.334 4.145 17.413 9.993 19.923v8.807C32 42.628 26.628 48 20 48c-6.626 0-12-5.375-12-11.998V11.998C8 5.372 13.372 0 20 0c2.448 0 4.726.734 6.625 1.994zM8.995 64H18v-8C8.06 56 0 47.944 0 38.01v-1.005C0 36.446.452 36 1.01 36h1.98c.567 0 1.01.45 1.01 1.005v1.004C4 45.734 10.269 52 18 52h4c7.737 0 14-6.261 14-13.99v-1.005c0-.559.452-1.005 1.01-1.005h1.98c.567 0 1.01.45 1.01 1.005v1.004C40 47.95 31.946 56 22 56v8h9.005c.54 0 .995.452.995 1.01v1.98A1 1 0 0 1 31 68H9c-.553 0-1-.452-1-1.01v-1.98c0-.567.446-1.01.995-1.01zm26.943-39c-6.565 0-10.458-9.137-10.935-17.891a2 2 0 0 1 1.722-2.09c2.77-.385 6.39-2.483 7.667-4.208a2 2 0 0 1 3.216 0c1.276 1.725 4.897 3.823 7.667 4.208a2 2 0 0 1 1.722 2.09C46.527 15.755 42.503 25 35.938 25zm0-4c3.171 0 6.159-6.255 6.915-12.426C40.38 7.856 37.82 6.45 36 4.88c-1.82 1.57-4.381 2.976-6.856 3.694C29.886 14.807 32.785 21 35.938 21z" fill="#ffffff" opacity="1" data-original="#000000"></path></g></svg>